<?xml version="1.0" encoding="utf-8"?>
<!-- Generator: Adobe Illustrator 24.1.1, SVG Export Plug-In . SVG Version: 6.00 Build 0)  -->
<svg version="1.1" id="Layer_1" xmlns="http://www.w3.org/2000/svg" xmlns:xlink="http://www.w3.org/1999/xlink" x="0px" y="0px"
	 viewBox="0 0 1366 768" style="enable-background:new 0 0 1366 768;" xml:space="preserve">
<style type="text/css">
	.st0{fill:#00FFFF;}
	.st1{fill:#4D4D4D;}
	.st2{fill:#F7931E;}
	.st3{fill:#FF9C2A;}
	.st4{font-family:'ErasITC-Demi';}
	.st5{font-size:108.3483px;}
</style>
<rect class="st0" width="1366" height="768"/>
<g>
	<path class="st1" d="M138.38,491H69.5c-4.69,0-8.5-3.81-8.5-8.5v-15c0-4.69,3.81-8.5,8.5-8.5h68.88c4.69,0,8.5,3.81,8.5,8.5v15
		C146.88,487.19,143.08,491,138.38,491z"/>
</g>
<g>
	<rect x="110.11" y="459" class="st1" width="36.78" height="218.35"/>
</g>
<rect x="110.11" y="645.62" class="st2" width="240.89" height="31.73"/>
<ellipse cx="327.09" cy="699.74" rx="23.91" ry="24.26"/>
<ellipse cx="128.49" cy="699.74" rx="23.91" ry="24.26"/>
<rect x="174.47" y="536.45" class="st3" width="138.84" height="109.17"/>
<rect x="207.66" y="474.43" class="st3" width="72.54" height="65.75"/>
<text transform="matrix(1.3236 0 0 1 25.7188 169.9111)" class="st4 st5">SELAMAT DATANG </text>
</svg>
